<svg xmlns="http://www.w3.org/2000/svg" viewBox="0 0 400 600" fill="currentColor">
  <!-- Minimalist human body silhouette for Human Design bodygraph -->

  <!-- Head - ellipse -->
  <ellipse cx="200" cy="42" rx="31" ry="35"/>

  <!-- Body outline path -->
  <path d="
    M 178 72
    C 175 85, 172 100, 168 115
    C 162 135, 145 155, 115 168
    C 90 178, 72 190, 62 205
    C 50 225, 42 260, 38 295
    C 35 325, 32 355, 35 375
    C 38 390, 48 395, 55 388
    C 62 380, 58 365, 55 345
    C 52 320, 58 285, 68 250
    C 75 225, 82 205, 95 190
    C 100 210, 95 260, 92 310
    C 90 350, 92 390, 100 425
    C 105 448, 115 465, 130 478
    C 145 490, 155 498, 165 502
    C 162 530, 155 560, 150 590
    L 150 595
    L 165 595
    C 170 565, 178 530, 182 505
    C 190 510, 200 512, 210 510
    C 215 508, 218 505, 218 505
    C 222 530, 230 565, 235 595
    L 250 595
    L 250 590
    C 245 560, 238 530, 235 502
    C 245 498, 255 490, 270 478
    C 285 465, 295 448, 300 425
    C 308 390, 310 350, 308 310
    C 305 260, 300 210, 305 190
    C 318 205, 325 225, 332 250
    C 342 285, 348 320, 345 345
    C 342 365, 338 380, 345 388
    C 352 395, 362 390, 365 375
    C 368 355, 365 325, 362 295
    C 358 260, 350 225, 338 205
    C 328 190, 310 178, 285 168
    C 255 155, 238 135, 232 115
    C 228 100, 225 85, 222 72
    C 215 68, 185 68, 178 72
    Z
  "/>
</svg>
